{"accessors":[{"name":"Gap-Mesh_positions","componentType":5126,"count":1136,"min":[-0.025908000767230988,-0.026117000728845596,-0.0306560005992651],"max":[0.025902999565005302,0.026117000728845596,0.03078100085258484],"type":"VEC3","bufferView":0,"byteOffset":0},{"name":"Gap-Mesh_normals","componentType":5126,"count":1136,"min":[-0.7760999798774719,-0.803600013256073,-0.8970000147819519],"max":[0.776199996471405,0.8034999966621399,0.8966000080108643],"type":"VEC3","bufferView":0,"byteOffset":142212},{"name":"Gap-Mesh_texcoords","componentType":5126,"count":1136,"min":[0.025371000170707703,0.16156400740146637],"max":[0.9750000238418579,0.8358680009841919],"type":"VEC2","bufferView":1,"byteOffset":0},{"name":"Gap-Mesh_0_indices","componentType":5123,"count":2604,"min":[0],"max":[1135],"type":"SCALAR","bufferView":2,"byteOffset":0},{"name":"Leather-Mesh_positions","componentType":5126,"count":4256,"min":[-0.034290000796318054,-0.034290000796318054,-0.034290000796318054],"max":[0.034290000796318054,0.034290000796318054,0.034290000796318054],"type":"VEC3","bufferView":0,"byteOffset":13632},{"name":"Leather-Mesh_normals","componentType":5126,"count":4256,"min":[-0.9998999834060669,-0.9998999834060669,-1],"max":[0.9998999834060669,0.9998999834060669,1],"type":"VEC3","bufferView":0,"byteOffset":155844},{"name":"Leather-Mesh_texcoords","componentType":5126,"count":4256,"min":[0.025219999253749847,0.02500000037252903],"max":[0.9750000238418579,0.9750000238418579],"type":"VEC2","bufferView":1,"byteOffset":9088},{"name":"Leather-Mesh_0_indices","componentType":5123,"count":15018,"min":[0],"max":[4255],"type":"SCALAR","bufferView":2,"byteOffset":5208},{"name":"Stitching-Mesh_positions","componentType":5126,"count":6459,"min":[-0.027202999219298363,-0.027553999796509743,-0.031814999878406525],"max":[0.027463000267744064,0.027708999812602997,0.03206099942326546],"type":"VEC3","bufferView":0,"byteOffset":64704},{"name":"Stitching-Mesh_normals","componentType":5126,"count":6459,"min":[-0.9994999766349792,-0.9998000264167786,-0.9998000264167786],"max":[0.9993000030517578,0.9998000264167786,0.9998999834060669],"type":"VEC3","bufferView":0,"byteOffset":206916},{"name":"Stitching-Mesh_texcoords","componentType":5126,"count":6459,"min":[0.02500000037252903,0.13656599819660187],"max":[0.9750000238418579,0.8553799986839294],"type":"VEC2","bufferView":1,"byteOffset":43136},{"name":"Stitching-Mesh_0_indices","componentType":5123,"count":17508,"min":[0],"max":[6458],"type":"SCALAR","bufferView":2,"byteOffset":35244}],"asset":{"generator":"obj2gltf","version":"2.0"},"buffers":[{"name":"baseball","byteLength":449492,"uri":"data:application/octet-stream;base64,"}],"bufferViews":[{"name":"bufferView_0","buffer":0,"byteLength":284424,"byteOffset":0,"byteStride":12,"target":34962},{"name":"bufferView_1","buffer":0,"byteLength":94808,"byteOffset":284424,"byteStride":8,"target":34962},{"name":"bufferView_2","buffer":0,"byteLength":70260,"byteOffset":379232,"target":34963}],"materials":[{"name":"Gap","pbrMetallicRoughness":{"baseColorFactor":[0.407843,0.407843,0.407843,1],"metallicFactor":0,"roughnessFactor":0.903921569},"emissiveFactor":[0,0,0],"alphaMode":"OPAQUE","doubleSided":false},{"name":"Leather","pbrMetallicRoughness":{"baseColorFactor":[1,1,1,1],"metallicFactor":0,"roughnessFactor":0.892223919975571},"emissiveFactor":[0,0,0],"alphaMode":"OPAQUE","doubleSided":false},{"name":"Stitching","pbrMetallicRoughness":{"baseColorFactor":[1,0,0,1],"metallicFactor":0,"roughnessFactor":0.903921569},"emissiveFactor":[0,0,0],"alphaMode":"OPAQUE","doubleSided":false}],"meshes":[{"name":"Gap-Mesh","primitives":[{"attributes":{"POSITION":0,"NORMAL":1,"TEXCOORD_0":2},"indices":3,"material":0,"mode":4}]},{"name":"Leather-Mesh","primitives":[{"attributes":{"POSITION":4,"NORMAL":5,"TEXCOORD_0":6},"indices":7,"material":1,"mode":4}]},{"name":"Stitching-Mesh","primitives":[{"attributes":{"POSITION":8,"NORMAL":9,"TEXCOORD_0":10},"indices":11,"material":2,"mode":4}]}],"nodes":[{"name":"Gap","mesh":0},{"name":"Leather","mesh":1},{"name":"Stitching","mesh":2}],"scene":0,"scenes":[{"nodes":[0,1,2]}]}
