{"accessors":[{"name":"NBCPeacock_1_positions","componentType":5126,"count":2521,"min":[16022.1904296875,-19595.740234375,5790.19873046875],"max":[450673.25,14625.998046875,263866.0625],"type":"VEC3","bufferView":0,"byteOffset":0},{"name":"NBCPeacock_1_normals","componentType":5126,"count":2521,"min":[-1,-1,-1],"max":[1,1,1],"type":"VEC3","bufferView":0,"byteOffset":30252},{"name":"NBCPeacock_1_0_indices","componentType":5123,"count":861,"min":[0],"max":[296],"type":"SCALAR","bufferView":1,"byteOffset":0},{"name":"NBCPeacock_1_1_indices","componentType":5123,"count":936,"min":[297],"max":[511],"type":"SCALAR","bufferView":1,"byteOffset":1724},{"name":"NBCPeacock_1_2_indices","componentType":5123,"count":453,"min":[512],"max":[620],"type":"SCALAR","bufferView":1,"byteOffset":3596},{"name":"NBCPeacock_1_3_indices","componentType":5123,"count":546,"min":[621],"max":[757],"type":"SCALAR","bufferView":1,"byteOffset":4504},{"name":"NBCPeacock_1_4_indices","componentType":5123,"count":693,"min":[758],"max":[913],"type":"SCALAR","bufferView":1,"byteOffset":5596},{"name":"NBCPeacock_1_5_indices","componentType":5123,"count":678,"min":[914],"max":[1080],"type":"SCALAR","bufferView":1,"byteOffset":6984},{"name":"NBCPeacock_1_6_indices","componentType":5123,"count":441,"min":[1081],"max":[1189],"type":"SCALAR","bufferView":1,"byteOffset":8340},{"name":"NBCPeacock_1_7_indices","componentType":5123,"count":387,"min":[1190],"max":[1286],"type":"SCALAR","bufferView":1,"byteOffset":9224},{"name":"NBCPeacock_1_8_indices","componentType":5123,"count":120,"min":[1287],"max":[1319],"type":"SCALAR","bufferView":1,"byteOffset":10000},{"name":"NBCPeacock_1_9_indices","componentType":5123,"count":882,"min":[1320],"max":[1517],"type":"SCALAR","bufferView":1,"byteOffset":10240},{"name":"NBCPeacock_1_10_indices","componentType":5123,"count":213,"min":[1518],"max":[1572],"type":"SCALAR","bufferView":1,"byteOffset":12004},{"name":"NBCPeacock_1_11_indices","componentType":5123,"count":450,"min":[1573],"max":[1687],"type":"SCALAR","bufferView":1,"byteOffset":12432},{"name":"NBCPeacock_1_12_indices","componentType":5123,"count":348,"min":[1688],"max":[1780],"type":"SCALAR","bufferView":1,"byteOffset":13332},{"name":"NBCPeacock_1_13_indices","componentType":5123,"count":4488,"min":[1781],"max":[2520],"type":"SCALAR","bufferView":1,"byteOffset":14028}],"asset":{"generator":"obj2gltf","version":"2.0"},"buffers":[{"name":"NBCPeacock","byteLength":83508,"uri":"data:application/octet-stream;base64,"}],"bufferViews":[{"name":"bufferView_0","buffer":0,"byteLength":60504,"byteOffset":0,"byteStride":12,"target":34962},{"name":"bufferView_1","buffer":0,"byteLength":23004,"byteOffset":60504,"target":34963}],"materials":[{"name":"Mat_0_-1","pbrMetallicRoughness":{"baseColorFactor":[0.5,0.5,0.5,1],"metallicFactor":0,"roughnessFactor":0.97},"emissiveFactor":[0,0,0],"alphaMode":"OPAQUE","doubleSided":false},{"name":"Mat_1_-1","pbrMetallicRoughness":{"baseColorFactor":[0.9804,0.502,0.4471,1],"metallicFactor":0,"roughnessFactor":0.97},"emissiveFactor":[0,0,0],"alphaMode":"OPAQUE","doubleSided":false},{"name":"Mat_2_-1","pbrMetallicRoughness":{"baseColorFactor":[1,0.549,0,1],"metallicFactor":0,"roughnessFactor":0.97},"emissiveFactor":[0,0,0],"alphaMode":"OPAQUE","doubleSided":false},{"name":"Mat_3_-1","pbrMetallicRoughness":{"baseColorFactor":[1,1,0,1],"metallicFactor":0,"roughnessFactor":0.97},"emissiveFactor":[0,0,0],"alphaMode":"OPAQUE","doubleSided":false},{"name":"Mat_4_-1","pbrMetallicRoughness":{"baseColorFactor":[0.502,0,0.502,1],"metallicFactor":0,"roughnessFactor":0.97},"emissiveFactor":[0,0,0],"alphaMode":"OPAQUE","doubleSided":false},{"name":"Mat_5_-1","pbrMetallicRoughness":{"baseColorFactor":[0.1176,0.5647,1,1],"metallicFactor":0,"roughnessFactor":0.97},"emissiveFactor":[0,0,0],"alphaMode":"OPAQUE","doubleSided":false},{"name":"Mat_6_-1","pbrMetallicRoughness":{"baseColorFactor":[0.1961,0.8039,0.1961,1],"metallicFactor":0,"roughnessFactor":0.97},"emissiveFactor":[0,0,0],"alphaMode":"OPAQUE","doubleSided":false},{"name":"Mat_7_-1","pbrMetallicRoughness":{"baseColorFactor":[0.1333,0.5451,0.1333,1],"metallicFactor":0,"roughnessFactor":0.97},"emissiveFactor":[0,0,0],"alphaMode":"OPAQUE","doubleSided":false},{"name":"Mat_8_-1","pbrMetallicRoughness":{"baseColorFactor":[1,0,0,1],"metallicFactor":0,"roughnessFactor":0.97},"emissiveFactor":[0,0,0],"alphaMode":"OPAQUE","doubleSided":false},{"name":"Mat_9_-1","pbrMetallicRoughness":{"baseColorFactor":[0.7294,0.3333,0.8275,1],"metallicFactor":0,"roughnessFactor":0.97},"emissiveFactor":[0,0,0],"alphaMode":"OPAQUE","doubleSided":false},{"name":"Mat_10_-1","pbrMetallicRoughness":{"baseColorFactor":[1,0.2706,0,1],"metallicFactor":0,"roughnessFactor":0.97},"emissiveFactor":[0,0,0],"alphaMode":"OPAQUE","doubleSided":false},{"name":"Mat_11_-1","pbrMetallicRoughness":{"baseColorFactor":[1,0.6471,0,1],"metallicFactor":0,"roughnessFactor":0.97},"emissiveFactor":[0,0,0],"alphaMode":"OPAQUE","doubleSided":false},{"name":"Mat_12_-1","pbrMetallicRoughness":{"baseColorFactor":[0,0,1,1],"metallicFactor":0,"roughnessFactor":0.97},"emissiveFactor":[0,0,0],"alphaMode":"OPAQUE","doubleSided":false},{"name":"Mat_13_-1","pbrMetallicRoughness":{"baseColorFactor":[1,1,1,1],"metallicFactor":0,"roughnessFactor":0.97},"emissiveFactor":[0,0,0],"alphaMode":"OPAQUE","doubleSided":false}],"meshes":[{"name":"NBCPeacock_1","primitives":[{"attributes":{"POSITION":0,"NORMAL":1},"indices":2,"material":0,"mode":4},{"attributes":{"POSITION":0,"NORMAL":1},"indices":3,"material":1,"mode":4},{"attributes":{"POSITION":0,"NORMAL":1},"indices":4,"material":2,"mode":4},{"attributes":{"POSITION":0,"NORMAL":1},"indices":5,"material":3,"mode":4},{"attributes":{"POSITION":0,"NORMAL":1},"indices":6,"material":4,"mode":4},{"attributes":{"POSITION":0,"NORMAL":1},"indices":7,"material":5,"mode":4},{"attributes":{"POSITION":0,"NORMAL":1},"indices":8,"material":6,"mode":4},{"attributes":{"POSITION":0,"NORMAL":1},"indices":9,"material":7,"mode":4},{"attributes":{"POSITION":0,"NORMAL":1},"indices":10,"material":8,"mode":4},{"attributes":{"POSITION":0,"NORMAL":1},"indices":11,"material":9,"mode":4},{"attributes":{"POSITION":0,"NORMAL":1},"indices":12,"material":10,"mode":4},{"attributes":{"POSITION":0,"NORMAL":1},"indices":13,"material":11,"mode":4},{"attributes":{"POSITION":0,"NORMAL":1},"indices":14,"material":12,"mode":4},{"attributes":{"POSITION":0,"NORMAL":1},"indices":15,"material":13,"mode":4}]}],"nodes":[{"name":"NBCPeacock","mesh":0}],"scene":0,"scenes":[{"nodes":[0]}]}
